<svg xmlns="http://www.w3.org/2000/svg" width="24" height="24" viewBox="0 0 24 24" fill="none"><rect width="24" height="24" rx="4" fill="#1DA1F2"/><path d="M18 8.5C17.59 8.68 17.15 8.8 16.69 8.85C17.16 8.56 17.5 8.09 17.66 7.54C17.22 7.81 16.73 8 16.21 8.09C15.8 7.65 15.21 7.4 14.57 7.4C13.29 7.4 12.29 8.4 12.29 9.68C12.29 9.86 12.31 10.03 12.35 10.19C10.5 10.09 8.92 9.22 7.86 7.89C7.66 8.22 7.54 8.61 7.54 9.03C7.54 9.81 7.97 10.5 8.62 10.89C8.25 10.88 7.91 10.78 7.62 10.62V10.65C7.62 11.77 8.47 12.7 9.57 12.91C9.36 12.97 9.13 13 8.89 13C8.73 13 8.57 12.98 8.41 12.95C8.74 13.86 9.65 14.5 10.7 14.5C9.86 15.12 8.81 15.5 7.67 15.5C7.46 15.5 7.25 15.49 7.05 15.47C8.11 16.09 9.38 16.5 10.75 16.5C14.57 16.5 16.71 13.5 16.71 10.13C16.71 10.01 16.71 9.89 16.7 9.77C17.15 9.45 17.54 9.04 17.85 8.57C17.44 8.77 17 8.91 16.54 8.97C17.01 8.68 17.35 8.21 17.51 7.66C17.07 7.93 16.58 8.12 16.06 8.21C15.65 7.77 15.06 7.52 14.42 7.52C13.14 7.52 12.14 8.52 12.14 9.8C12.14 9.98 12.16 10.15 12.2 10.31C10.35 10.21 8.77 9.34 7.71 8.01C7.51 8.34 7.39 8.73 7.39 9.15C7.39 9.93 7.82 10.62 8.47 11.01C8.1 11 7.76 10.9 7.47 10.74V10.77C7.47 11.89 8.32 12.82 9.42 13.03C9.21 13.09 8.98 13.12 8.74 13.12C8.58 13.12 8.42 13.1 8.26 13.07C8.59 13.98 9.5 14.62 10.55 14.62C9.71 15.24 8.66 15.62 7.52 15.62C7.31 15.62 7.1 15.61 6.9 15.59C7.96 16.21 9.23 16.62 10.6 16.62C14.42 16.62 16.56 13.62 16.56 10.25C16.56 10.13 16.56 10.01 16.55 9.89C17 9.57 17.39 9.16 17.7 8.69Z" fill="white"/></svg>